<?xml version="1.0" standalone="no"?>
<!DOCTYPE svg PUBLIC "-//W3C//DTD SVG 20010904//EN"
 "http://www.w3.org/TR/2001/REC-SVG-20010904/DTD/svg10.dtd">
<svg version="1.0" xmlns="http://www.w3.org/2000/svg"
 width="512.000000pt" height="512.000000pt" viewBox="0 0 512.000000 512.000000"
 preserveAspectRatio="xMidYMid meet">
<metadata>
Created by potrace 1.11, written by Peter Selinger 2001-2013
</metadata>
<g transform="translate(0.000000,512.000000) scale(0.100000,-0.100000)"
fill="#000000" stroke="none">
<path d="M2095 5106 c-78 -19 -152 -65 -215 -133 -52 -57 -78 -107 -106 -200
-3 -10 -76 -13 -324 -13 -339 0 -341 0 -393 -49 -40 -36 -45 -48 -67 -158 -11
-54 -22 -108 -25 -120 -5 -21 -11 -23 -73 -23 -112 -1 -169 -31 -203 -105 -15
-32 -19 -65 -19 -170 0 -116 3 -136 23 -175 37 -72 92 -99 205 -100 l52 0 0
-1370 0 -1371 25 -24 c31 -32 74 -33 103 -2 l22 23 0 1372 0 1372 1455 0 1455
0 0 -164 c0 -89 5 -177 11 -194 13 -37 54 -57 90 -43 50 19 54 32 57 221 l4
177 71 5 c116 8 178 53 198 144 7 30 10 99 7 166 -3 96 -8 120 -27 151 -36 59
-81 80 -181 85 l-86 4 -23 116 c-26 134 -38 161 -88 199 l-36 28 -331 5 -330
5 -12 41 c-29 101 -123 218 -212 263 -94 48 -129 51 -567 50 -285 0 -425 -4
-460 -13z m950 -168 c28 -14 62 -39 76 -55 26 -27 69 -100 69 -115 0 -5 -283
-8 -630 -8 -429 0 -630 3 -630 10 0 27 43 91 86 129 79 70 85 70 559 68 l420
-2 50 -27z m920 -350 c8 -35 35 -169 35 -174 0 -2 -648 -4 -1440 -4 -1244 0
-1440 2 -1440 14 0 16 28 154 35 174 3 9 293 12 1404 12 l1401 0 5 -22z m309
-334 c13 -5 16 -25 16 -120 l0 -114 -1732 2 -1733 3 -3 104 c-2 67 1 108 9
117 10 12 270 14 1719 14 940 0 1715 -3 1724 -6z"/>
<path d="M4049 3248 c-9 -7 -21 -23 -27 -35 -9 -16 -12 -394 -12 -1495 0
-1149 -3 -1478 -13 -1497 -6 -13 -25 -34 -40 -45 l-28 -21 -1368 0 c-1485 0
-1399 -3 -1438 54 -16 23 -19 62 -23 329 -5 286 -6 304 -24 318 -33 24 -82 18
-106 -13 -21 -27 -21 -34 -18 -333 3 -342 4 -343 78 -424 28 -30 60 -52 97
-66 54 -20 64 -20 1446 -18 l1392 3 48 25 c57 29 102 76 131 139 l21 46 0
1497 c0 1485 0 1498 -20 1517 -25 26 -75 35 -96 19z"/>
<path d="M2391 3225 c-267 -60 -474 -216 -594 -445 -151 -287 -133 -613 47
-884 215 -323 618 -459 991 -335 98 33 152 61 233 121 47 35 52 42 52 77 0 42
-19 65 -61 76 -19 5 -38 -2 -78 -30 -80 -55 -185 -102 -269 -121 -108 -24
-281 -15 -380 20 -418 146 -605 617 -400 1010 52 98 171 222 268 279 359 208
823 62 1000 -315 83 -179 91 -350 24 -546 l-38 -112 20 -27 c22 -29 51 -39 89
-29 28 7 69 87 98 191 28 102 34 280 12 386 -64 321 -301 578 -617 670 -96 28
-304 35 -397 14z"/>
<path d="M2565 2802 c-134 -40 -283 -150 -355 -261 -77 -121 -113 -283 -92
-417 7 -43 20 -91 30 -108 58 -103 320 -114 507 -22 204 101 344 315 348 534
3 152 -23 225 -93 266 -49 29 -258 34 -345 8z m272 -145 c4 -5 8 -57 8 -115
-1 -101 -3 -111 -36 -182 -51 -107 -112 -171 -214 -221 -65 -32 -98 -42 -151
-46 l-69 -5 178 179 c182 184 195 204 164 244 -15 20 -51 39 -73 39 -10 0 -98
-80 -196 -177 l-178 -177 0 44 c1 178 152 362 341 415 57 15 211 17 226 2z"/>
<path d="M2470 857 c-38 -19 -54 -60 -38 -94 18 -38 53 -53 126 -53 74 0 119
20 128 55 10 39 -4 73 -36 90 -36 18 -145 20 -180 2z"/>
<path d="M2374 646 c-72 -32 -53 -126 29 -141 18 -4 102 -5 186 -3 l153 3 24
28 c30 35 30 59 0 94 l-24 28 -169 2 c-126 2 -176 -1 -199 -11z"/>
</g>
</svg>
